<?xml version="1.0" encoding="UTF-8" standalone="no"?> <svg width="48" height="48" viewBox="0 0 48 48" fill="none" xmlns="http://www.w3.org/2000/svg">
<path d="M24 48C37.2548 48 48 37.2548 48 24C48 10.7452 37.2548 0 24 0C10.7452 0 0 10.7452 0 24C0 37.2548 10.7452 48 24 48Z" fill="#F57D00"/>
<path fill-rule="evenodd" clip-rule="evenodd" d="M25.0608 9.59998L25.1234 9.59999H25.1921C29.5709 9.71934 32.7694 13.2774 32.9092 17.0249H32.9218C32.9278 17.0838 32.9301 17.1459 32.9324 17.2081V17.2081V17.2082C32.9344 17.2607 32.9363 17.3132 32.9405 17.364C33.0279 18.4206 33.0162 19.5732 32.7404 20.7373C32.8764 20.7423 33.008 20.7478 33.1406 20.7558C34.3174 20.8266 35.6866 20.986 36.8804 22.1125C38.0741 23.239 38.2674 24.6541 38.3375 25.6831C38.3823 26.3418 38.3848 26.9944 38.3875 27.7309V27.7309V27.7312C38.389 28.1451 38.3907 28.5856 38.4 29.0687V29.1118V29.155C38.372 31.7408 37.588 34.156 35.8985 35.8707C34.209 37.5854 31.7966 38.3785 29.3321 38.3991H29.3196H29.3071H18.8446C18.8381 38.3992 18.8317 38.3991 18.8252 38.3991C18.8192 38.3991 18.8132 38.399 18.8071 38.3991C16.1708 38.4265 13.6172 37.8261 11.8154 36.0064C10.0437 34.217 9.48065 31.6757 9.62036 29.007H9.6141C9.61417 28.9941 9.61571 28.9816 9.61724 28.9691C9.6187 28.9572 9.62017 28.9453 9.62036 28.933C9.62135 28.9165 9.62084 28.9004 9.62033 28.8842C9.6198 28.8677 9.61928 28.8512 9.62036 28.8343H9.63287L9.82048 17.3764H9.82675C9.88074 15.8908 10.2197 14.2705 11.3026 12.7759C12.6828 10.8709 15.2721 9.69767 18.238 9.70481H18.3068L25.0608 9.59998ZM18.5381 26.4002C17.6356 26.388 16.7962 26.8427 16.3412 27.5902C15.8863 28.3377 15.8863 29.2622 16.3412 30.0098C16.7962 30.7573 17.6356 31.212 18.5381 31.1997H30.2619C31.1644 31.212 32.0038 30.7573 32.4588 30.0098C32.9137 29.2622 32.9137 28.3377 32.4588 27.5902C32.0038 26.8427 31.1644 26.388 30.2619 26.4002H18.5381ZM16.8003 18.3205C16.8217 17.0195 17.9933 15.9807 19.4172 16.0002L25.4633 16.0886C26.8872 16.1097 28.0228 17.1815 27.9997 18.4824C27.9765 19.7833 26.8034 20.8208 25.3795 20.7997L19.3399 20.7113C17.916 20.6918 16.7789 19.6214 16.8003 18.3205Z" fill="white"/>
</svg>
